<svg xmlns="http://www.w3.org/2000/svg" viewBox="0 0 64 64"><defs><style>.cls-1{fill:#fff;}.cls-1,.cls-2,.cls-6,.cls-7,.cls-9{stroke:#54596e;stroke-linecap:round;stroke-linejoin:round;stroke-width:2px;}.cls-2{fill:none;}.cls-3{fill:#54596e;}.cls-4{fill:#ff927d;}.cls-5{fill:#ffd400;}.cls-10,.cls-6{fill:#fff35f;}.cls-7{fill:#ffb8f2;}.cls-8{fill:#9af43b;}.cls-9{fill:#bfad88;}.cls-10{opacity:0.5;}</style></defs><title>search</title><g id="search"><path class="cls-1" d="M4.31,10H59.69A2.31,2.31,0,0,1,62,12.31V17a0,0,0,0,1,0,0H2a0,0,0,0,1,0,0V12.31A2.31,2.31,0,0,1,4.31,10Z" id="id_101"></path><path class="" d="M2,17H62a0,0,0,0,1,0,0V48.69A2.31,2.31,0,0,1,59.69,51H4.31A2.31,2.31,0,0,1,2,48.69V17A0,0,0,0,1,2,17Z" id="id_102" fill="#bfe9f2"></path><path class="cls-2" d="M27.2,40.47a6.87,6.87,0,0,0,4.95-2.22,6.9,6.9,0,0,0,2.22-4.9" id="id_103" fill="#000000"></path><circle class="cls-3" cx="21.66" cy="35.77" r="2" transform="translate(-18.95 25.79) rotate(-45)" id="id_104"></circle><circle class="cls-3" cx="30.27" cy="28.16" r="2" transform="translate(-11.05 29.65) rotate(-45)" id="id_105"></circle><circle class="cls-4" cx="5.5" cy="13.5" r="1.5" id="id_106"></circle><circle class="cls-5" cx="9.5" cy="13.5" r="1.5" id="id_107"></circle><circle class="cls-6" cx="14" cy="27" r="6" id="id_108"></circle><circle class="cls-7" cx="51" cy="27" r="6" id="id_109"></circle><circle class="cls-8" cx="13.5" cy="13.5" r="1.5" id="id_110"></circle><path class="cls-9" d="M41.88,40.1h4.24a0,0,0,0,1,0,0V57.78A2.12,2.12,0,0,1,44,59.9h0a2.12,2.12,0,0,1-2.12-2.12V40.1A0,0,0,0,1,41.88,40.1Z" transform="translate(-22.47 45.76) rotate(-45)" id="id_111"></path><circle class="cls-10" cx="27.5" cy="33.5" r="13.5" transform="translate(-15.63 29.26) rotate(-45)" id="id_112"></circle><circle class="cls-2" cx="27.5" cy="33.5" r="13.5" transform="translate(-15.63 29.26) rotate(-45)" id="id_113" fill="#000000"></circle><circle class="cls-3" cx="49" cy="25" r="1" id="id_114"></circle><circle class="cls-3" cx="53" cy="25" r="1" id="id_115"></circle></g></svg>